<mxfile host="65bd71144e">
    <diagram id="69DQ4DHEd4N1IFzqgOr_" name="PÃ¡gina-1">
        <mxGraphModel dx="526" dy="525" grid="1" gridSize="10" guides="1" tooltips="1" connect="1" arrows="1" fold="1" page="1" pageScale="1" pageWidth="827" pageHeight="1169" math="0" shadow="0">
            <root>
                <mxCell id="0"/>
                <mxCell id="1" parent="0"/>
                <mxCell id="8" value="" style="edgeStyle=none;html=1;" edge="1" parent="1" source="2" target="3">
                    <mxGeometry relative="1" as="geometry"/>
                </mxCell>
                <mxCell id="2" value="inicio" style="ellipse;whiteSpace=wrap;html=1;fillColor=#76E4F0;" vertex="1" parent="1">
                    <mxGeometry x="220" y="30" width="120" height="80" as="geometry"/>
                </mxCell>
                <mxCell id="7" value="" style="edgeStyle=none;html=1;" edge="1" parent="1" source="3" target="4">
                    <mxGeometry relative="1" as="geometry"/>
                </mxCell>
                <mxCell id="3" value="deuda , salario" style="shape=parallelogram;perimeter=parallelogramPerimeter;whiteSpace=wrap;html=1;fixedSize=1;fillColor=#80FF00;" vertex="1" parent="1">
                    <mxGeometry x="220" y="150" width="120" height="60" as="geometry"/>
                </mxCell>
                <mxCell id="6" style="edgeStyle=none;html=1;exitX=1;exitY=0.5;exitDx=0;exitDy=0;entryX=0.5;entryY=0;entryDx=0;entryDy=0;" edge="1" parent="1" source="4">
                    <mxGeometry relative="1" as="geometry">
                        <mxPoint x="450" y="330" as="targetPoint"/>
                        <Array as="points">
                            <mxPoint x="450" y="280"/>
                        </Array>
                    </mxGeometry>
                </mxCell>
                <mxCell id="4" value="X &amp;gt; =$945200" style="rhombus;whiteSpace=wrap;html=1;fillColor=#FF0000;" vertex="1" parent="1">
                    <mxGeometry x="230" y="230" width="100" height="100" as="geometry"/>
                </mxCell>
                <mxCell id="9" value="DEUDA = NO" style="rhombus;whiteSpace=wrap;html=1;fillColor=#FF0000;" vertex="1" parent="1">
                    <mxGeometry x="410" y="310" width="80" height="80" as="geometry"/>
                </mxCell>
                <mxCell id="10" value="APROBADO" style="shape=document;whiteSpace=wrap;html=1;boundedLbl=1;fillColor=#660033;" vertex="1" parent="1">
                    <mxGeometry x="500" y="410" width="120" height="80" as="geometry"/>
                </mxCell>
                <mxCell id="11" value="DENEGADO" style="shape=document;whiteSpace=wrap;html=1;boundedLbl=1;fillColor=#660033;" vertex="1" parent="1">
                    <mxGeometry x="280" y="410" width="120" height="80" as="geometry"/>
                </mxCell>
                <mxCell id="13" value="DENEGADO" style="shape=document;whiteSpace=wrap;html=1;boundedLbl=1;fillColor=#660033;" vertex="1" parent="1">
                    <mxGeometry x="60" y="320" width="120" height="80" as="geometry"/>
                </mxCell>
                <mxCell id="14" value="" style="endArrow=none;html=1;exitX=0.5;exitY=0;exitDx=0;exitDy=0;entryX=0;entryY=0.5;entryDx=0;entryDy=0;" edge="1" parent="1" source="13" target="4">
                    <mxGeometry width="50" height="50" relative="1" as="geometry">
                        <mxPoint x="230" y="360" as="sourcePoint"/>
                        <mxPoint x="280" y="310" as="targetPoint"/>
                        <Array as="points">
                            <mxPoint x="120" y="280"/>
                        </Array>
                    </mxGeometry>
                </mxCell>
                <mxCell id="15" value="" style="endArrow=none;html=1;" edge="1" parent="1">
                    <mxGeometry width="50" height="50" relative="1" as="geometry">
                        <mxPoint x="120" y="390" as="sourcePoint"/>
                        <mxPoint x="120" y="560" as="targetPoint"/>
                    </mxGeometry>
                </mxCell>
                <mxCell id="16" value="" style="endArrow=none;html=1;entryX=0.467;entryY=0.928;entryDx=0;entryDy=0;entryPerimeter=0;" edge="1" parent="1" target="11">
                    <mxGeometry width="50" height="50" relative="1" as="geometry">
                        <mxPoint x="336" y="560" as="sourcePoint"/>
                        <mxPoint x="280" y="310" as="targetPoint"/>
                    </mxGeometry>
                </mxCell>
                <mxCell id="17" value="" style="endArrow=none;html=1;" edge="1" parent="1">
                    <mxGeometry width="50" height="50" relative="1" as="geometry">
                        <mxPoint x="560" y="560" as="sourcePoint"/>
                        <mxPoint x="560" y="480" as="targetPoint"/>
                    </mxGeometry>
                </mxCell>
                <mxCell id="18" value="" style="endArrow=none;html=1;exitX=0.5;exitY=0;exitDx=0;exitDy=0;entryX=0;entryY=0.5;entryDx=0;entryDy=0;" edge="1" parent="1" source="11" target="9">
                    <mxGeometry width="50" height="50" relative="1" as="geometry">
                        <mxPoint x="490" y="360" as="sourcePoint"/>
                        <mxPoint x="540" y="310" as="targetPoint"/>
                        <Array as="points">
                            <mxPoint x="340" y="350"/>
                        </Array>
                    </mxGeometry>
                </mxCell>
                <mxCell id="19" value="" style="endArrow=none;html=1;exitX=1;exitY=0.5;exitDx=0;exitDy=0;entryX=0.5;entryY=0;entryDx=0;entryDy=0;" edge="1" parent="1" source="9" target="10">
                    <mxGeometry width="50" height="50" relative="1" as="geometry">
                        <mxPoint x="490" y="360" as="sourcePoint"/>
                        <mxPoint x="540" y="310" as="targetPoint"/>
                        <Array as="points">
                            <mxPoint x="560" y="350"/>
                        </Array>
                    </mxGeometry>
                </mxCell>
                <mxCell id="20" value="" style="endArrow=none;html=1;" edge="1" parent="1">
                    <mxGeometry width="50" height="50" relative="1" as="geometry">
                        <mxPoint x="120" y="560" as="sourcePoint"/>
                        <mxPoint x="560" y="560" as="targetPoint"/>
                    </mxGeometry>
                </mxCell>
                <mxCell id="21" value="" style="endArrow=none;html=1;" edge="1" parent="1" target="22">
                    <mxGeometry width="50" height="50" relative="1" as="geometry">
                        <mxPoint x="440" y="560" as="sourcePoint"/>
                        <mxPoint x="440" y="610" as="targetPoint"/>
                    </mxGeometry>
                </mxCell>
                <mxCell id="22" value="FIN" style="ellipse;whiteSpace=wrap;html=1;fillColor=#76E4F0;" vertex="1" parent="1">
                    <mxGeometry x="380" y="610" width="120" height="80" as="geometry"/>
                </mxCell>
            </root>
        </mxGraphModel>
    </diagram>
</mxfile>